<svg width="24" height="25" viewBox="0 0 24 25" fill="none" xmlns="http://www.w3.org/2000/svg">
<path d="M16 18.5C16.5304 18.5 17.0391 18.7107 17.4142 19.0858C17.7893 19.4609 18 19.9696 18 20.5C18 21.0304 17.7893 21.5391 17.4142 21.9142C17.0391 22.2893 16.5304 22.5 16 22.5C15.4696 22.5 14.9609 22.2893 14.5858 21.9142C14.2107 21.5391 14 21.0304 14 20.5C14 19.9696 14.2107 19.4609 14.5858 19.0858C14.9609 18.7107 15.4696 18.5 16 18.5ZM16 19.5C15.7348 19.5 15.4804 19.6054 15.2929 19.7929C15.1054 19.9804 15 20.2348 15 20.5C15 20.7652 15.1054 21.0196 15.2929 21.2071C15.4804 21.3946 15.7348 21.5 16 21.5C16.2652 21.5 16.5196 21.3946 16.7071 21.2071C16.8946 21.0196 17 20.7652 17 20.5C17 20.2348 16.8946 19.9804 16.7071 19.7929C16.5196 19.6054 16.2652 19.5 16 19.5ZM7 18.5C7.53043 18.5 8.03914 18.7107 8.41421 19.0858C8.78929 19.4609 9 19.9696 9 20.5C9 21.0304 8.78929 21.5391 8.41421 21.9142C8.03914 22.2893 7.53043 22.5 7 22.5C6.46957 22.5 5.96086 22.2893 5.58579 21.9142C5.21071 21.5391 5 21.0304 5 20.5C5 19.9696 5.21071 19.4609 5.58579 19.0858C5.96086 18.7107 6.46957 18.5 7 18.5ZM7 19.5C6.73478 19.5 6.48043 19.6054 6.29289 19.7929C6.10536 19.9804 6 20.2348 6 20.5C6 20.7652 6.10536 21.0196 6.29289 21.2071C6.48043 21.3946 6.73478 21.5 7 21.5C7.26522 21.5 7.51957 21.3946 7.70711 21.2071C7.89464 21.0196 8 20.7652 8 20.5C8 20.2348 7.89464 19.9804 7.70711 19.7929C7.51957 19.6054 7.26522 19.5 7 19.5ZM18 6.5H4.27L6.82 12.5H15C15.33 12.5 15.62 12.34 15.8 12.1L18.8 8.1C18.93 7.93 19 7.72 19 7.5C19 7.23478 18.8946 6.98043 18.7071 6.79289C18.5196 6.60536 18.2652 6.5 18 6.5ZM15 13.5H6.87L6.1 15.06L6 15.5C6 15.7652 6.10536 16.0196 6.29289 16.2071C6.48043 16.3946 6.73478 16.5 7 16.5H18V17.5H7C6.46957 17.5 5.96086 17.2893 5.58579 16.9142C5.21071 16.5391 5 16.0304 5 15.5C4.9997 15.1607 5.08573 14.8269 5.25 14.53L5.97 13.06L2.34 4.5H1V3.5H3L3.85 5.5H18C18.5304 5.5 19.0391 5.71071 19.4142 6.08579C19.7893 6.46086 20 6.96957 20 7.5C20 8 19.83 8.42 19.55 8.76L16.64 12.65C16.28 13.16 15.68 13.5 15 13.5Z" fill="#1E1E1E"/>
</svg>
