<svg width="38" height="38" viewBox="0 0 38 38" fill="none" xmlns="http://www.w3.org/2000/svg">
<g opacity="0.7" filter="url(#filter0_d_96_232)">
<g clip-path="url(#clip0_96_232)">
<circle cx="19" cy="15" r="15" fill="white"/>
<path d="M25 21C25.5304 21 26.0391 21.2107 26.4142 21.5858C26.7893 21.9609 27 22.4696 27 23C27 23.5304 26.7893 24.0391 26.4142 24.4142C26.0391 24.7893 25.5304 25 25 25C24.4696 25 23.9609 24.7893 23.5858 24.4142C23.2107 24.0391 23 23.5304 23 23C23 22.4696 23.2107 21.9609 23.5858 21.5858C23.9609 21.2107 24.4696 21 25 21ZM25 22C24.7348 22 24.4804 22.1054 24.2929 22.2929C24.1054 22.4804 24 22.7348 24 23C24 23.2652 24.1054 23.5196 24.2929 23.7071C24.4804 23.8946 24.7348 24 25 24C25.2652 24 25.5196 23.8946 25.7071 23.7071C25.8946 23.5196 26 23.2652 26 23C26 22.7348 25.8946 22.4804 25.7071 22.2929C25.5196 22.1054 25.2652 22 25 22ZM16 21C16.5304 21 17.0391 21.2107 17.4142 21.5858C17.7893 21.9609 18 22.4696 18 23C18 23.5304 17.7893 24.0391 17.4142 24.4142C17.0391 24.7893 16.5304 25 16 25C15.4696 25 14.9609 24.7893 14.5858 24.4142C14.2107 24.0391 14 23.5304 14 23C14 22.4696 14.2107 21.9609 14.5858 21.5858C14.9609 21.2107 15.4696 21 16 21ZM16 22C15.7348 22 15.4804 22.1054 15.2929 22.2929C15.1054 22.4804 15 22.7348 15 23C15 23.2652 15.1054 23.5196 15.2929 23.7071C15.4804 23.8946 15.7348 24 16 24C16.2652 24 16.5196 23.8946 16.7071 23.7071C16.8946 23.5196 17 23.2652 17 23C17 22.7348 16.8946 22.4804 16.7071 22.2929C16.5196 22.1054 16.2652 22 16 22ZM27 9H13.27L15.82 15H24C24.33 15 24.62 14.84 24.8 14.6L27.8 10.6C27.93 10.43 28 10.22 28 10C28 9.73478 27.8946 9.48043 27.7071 9.29289C27.5196 9.10536 27.2652 9 27 9ZM24 16H15.87L15.1 17.56L15 18C15 18.2652 15.1054 18.5196 15.2929 18.7071C15.4804 18.8946 15.7348 19 16 19H27V20H16C15.4696 20 14.9609 19.7893 14.5858 19.4142C14.2107 19.0391 14 18.5304 14 18C13.9997 17.6607 14.0857 17.3269 14.25 17.03L14.97 15.56L11.34 7H10V6H12L12.85 8H27C27.5304 8 28.0391 8.21071 28.4142 8.58579C28.7893 8.96086 29 9.46957 29 10C29 10.5 28.83 10.92 28.55 11.26L25.64 15.15C25.28 15.66 24.68 16 24 16Z" fill="#1E1E1E"/>
</g>
</g>
<defs>
<filter id="filter0_d_96_232" x="0" y="0" width="38" height="38" filterUnits="userSpaceOnUse" color-interpolation-filters="sRGB">
<feFlood flood-opacity="0" result="BackgroundImageFix"/>
<feColorMatrix in="SourceAlpha" type="matrix" values="0 0 0 0 0 0 0 0 0 0 0 0 0 0 0 0 0 0 127 0" result="hardAlpha"/>
<feOffset dy="4"/>
<feGaussianBlur stdDeviation="2"/>
<feComposite in2="hardAlpha" operator="out"/>
<feColorMatrix type="matrix" values="0 0 0 0 0 0 0 0 0 0 0 0 0 0 0 0 0 0 0.25 0"/>
<feBlend mode="normal" in2="BackgroundImageFix" result="effect1_dropShadow_96_232"/>
<feBlend mode="normal" in="SourceGraphic" in2="effect1_dropShadow_96_232" result="shape"/>
</filter>
<clipPath id="clip0_96_232">
<rect x="4" width="30" height="30" rx="15" fill="white"/>
</clipPath>
</defs>
</svg>
