<svg width="61" height="60" viewBox="0 0 61 60" fill="none" xmlns="http://www.w3.org/2000/svg">
<g clip-path="url(#clip0_51_63)">
<circle cx="30.5" cy="30" r="30" fill="#D3CABF" fill-opacity="0.6"/>
<path fill-rule="evenodd" clip-rule="evenodd" d="M48.5 14V42H38.5V50L26.3 42H12.5V14H48.5ZM44.5 18H16.5V38H27.4946L34.5 42.594V38H44.5V18ZM30.5877 32.85C31.2283 32.85 31.7576 33.061 32.1756 33.4828C32.5936 33.9047 32.8026 34.436 32.8025 35.0766C32.8025 35.7094 32.5935 36.2367 32.1756 36.6586C31.7575 37.0805 31.2282 37.2914 30.5877 37.2914C29.9314 37.2914 29.3962 37.0805 28.9822 36.6586C28.5681 36.2367 28.3611 35.6977 28.3611 35.0414C28.3611 34.4164 28.572 33.8949 28.9939 33.4769C29.4158 33.0589 29.947 32.85 30.5877 32.85ZM31.4548 20.1C33.2361 20.1 34.5916 20.5219 35.5212 21.3657C36.3416 22.1235 36.7517 23.1078 36.7517 24.3188C36.7517 25.1391 36.5525 25.8403 36.1541 26.4222C35.8054 26.9315 35.2175 27.4782 34.3904 28.0622L34.0212 28.3149C33.24 28.8383 32.7595 29.2387 32.5798 29.516C32.4002 29.7934 32.3103 30.2876 32.3103 30.9985V31.4789H28.8533V30.4477C28.8533 29.4554 28.9548 28.764 29.158 28.3735C29.2752 28.1468 29.4314 27.9457 29.6267 27.7699L29.8449 27.5881C29.9344 27.5172 30.0409 27.4359 30.1644 27.3442L31.4216 26.4442C31.9525 26.0546 32.3132 25.7484 32.5037 25.5258C32.7576 25.2289 32.8845 24.8813 32.8845 24.4828C32.8845 23.9828 32.7068 23.5863 32.3514 23.2933C31.9959 23.0004 31.5134 22.8539 30.9041 22.8539C29.9041 22.8539 28.697 23.2563 27.283 24.061L26.24 21.4594C27.9744 20.5532 29.7127 20.1 31.4548 20.1Z" fill="#333333"/>
</g>
<defs>
<clipPath id="clip0_51_63">
<rect width="60" height="60" fill="white" transform="translate(0.5)"/>
</clipPath>
</defs>
</svg>
