<svg width="60" height="60" viewBox="0 0 60 60" fill="none" xmlns="http://www.w3.org/2000/svg">
<g clip-path="url(#clip0_52_35)">
<circle cx="30" cy="30" r="30" fill="#D3CABF" fill-opacity="0.6"/>
<path fill-rule="evenodd" clip-rule="evenodd" d="M48 14V42H38V50L25.8 42H12V14H48ZM44 18H16V38H26.9946L34 42.594V38H44V18ZM30.0877 32.85C30.7283 32.85 31.2576 33.0609 31.6756 33.4828C32.0936 33.9047 32.3026 34.4359 32.3025 35.0766C32.3025 35.7094 32.0935 36.2367 31.6756 36.6586C31.2575 37.0805 30.7282 37.2914 30.0877 37.2914C29.4314 37.2914 28.8962 37.0805 28.4822 36.6586C28.0681 36.2367 27.8611 35.6977 27.8611 35.0414C27.8611 34.4164 28.072 33.8949 28.4939 33.4769C28.9158 33.0589 29.447 32.8499 30.0877 32.85ZM30.9548 20.1C32.7361 20.1 34.0916 20.5219 35.0212 21.3656C35.8416 22.1234 36.2517 23.1078 36.2517 24.3188C36.2517 25.1391 36.0525 25.8402 35.6541 26.4222C35.3054 26.9315 34.7175 27.4781 33.8904 28.0622L33.5212 28.3148C32.74 28.8383 32.2595 29.2387 32.0798 29.516C31.9002 29.7934 31.8103 30.2876 31.8103 30.9984V31.4789H28.3533V30.4477C28.3533 29.4554 28.4548 28.764 28.658 28.3734C28.7752 28.1468 28.9314 27.9456 29.1267 27.7699L29.3449 27.5881C29.4344 27.5172 29.5409 27.4358 29.6644 27.3442L30.9216 26.4442C31.4525 26.0545 31.8132 25.7484 32.0037 25.5258C32.2576 25.2289 32.3845 24.8813 32.3845 24.4828C32.3845 23.9828 32.2068 23.5863 31.8514 23.2933C31.4959 23.0004 31.0134 22.8539 30.4041 22.8539C29.4041 22.8539 28.197 23.2563 26.783 24.0609L25.74 21.4594C27.4744 20.5531 29.2127 20.1 30.9548 20.1Z" fill="#1E1E1E"/>
</g>
<defs>
<clipPath id="clip0_52_35">
<rect width="60" height="60" fill="white"/>
</clipPath>
</defs>
</svg>
