<svg width="60" height="60" viewBox="0 0 60 60" fill="none" xmlns="http://www.w3.org/2000/svg">
<g clip-path="url(#clip0_51_54)">
<circle cx="30" cy="30" r="30" fill="#D3CABF" fill-opacity="0.6"/>
<path d="M48.1818 30V44.4C48.1818 45.3548 47.7987 46.2705 47.1168 46.9456C46.4348 47.6207 45.5099 48 44.5455 48H15.4545C14.4901 48 13.5652 47.6207 12.8832 46.9456C12.2013 46.2705 11.8182 45.3548 11.8182 44.4V30C11.336 30 10.8735 29.8104 10.5325 29.4728C10.1916 29.1352 10 28.6774 10 28.2V22.8C10 21.8452 10.3831 20.9295 11.0651 20.2544C11.747 19.5793 12.6719 19.2 13.6364 19.2H19.4C19.1945 18.6217 19.09 18.013 19.0909 17.4C19.0909 15.9678 19.6656 14.5943 20.6885 13.5816C21.7114 12.5689 23.0988 12 24.5455 12C26.3636 12 27.9636 12.9 28.9636 14.232V14.214L30 15.6L31.0364 14.214V14.232C32.0364 12.9 33.6364 12 35.4545 12C36.9012 12 38.2886 12.5689 39.3115 13.5816C40.3344 14.5943 40.9091 15.9678 40.9091 17.4C40.91 18.013 40.8055 18.6217 40.6 19.2H46.3636C47.3281 19.2 48.253 19.5793 48.9349 20.2544C49.6169 20.9295 50 21.8452 50 22.8V28.2C50 28.6774 49.8084 29.1352 49.4675 29.4728C49.1265 29.8104 48.664 30 48.1818 30ZM15.4545 44.4H28.1818V30H15.4545V44.4ZM44.5455 44.4V30H31.8182V44.4H44.5455ZM24.5455 15.6C24.0632 15.6 23.6008 15.7896 23.2598 16.1272C22.9188 16.4648 22.7273 16.9226 22.7273 17.4C22.7273 17.8774 22.9188 18.3352 23.2598 18.6728C23.6008 19.0104 24.0632 19.2 24.5455 19.2C25.0277 19.2 25.4901 19.0104 25.8311 18.6728C26.1721 18.3352 26.3636 17.8774 26.3636 17.4C26.3636 16.9226 26.1721 16.4648 25.8311 16.1272C25.4901 15.7896 25.0277 15.6 24.5455 15.6ZM35.4545 15.6C34.9723 15.6 34.5099 15.7896 34.1689 16.1272C33.8279 16.4648 33.6364 16.9226 33.6364 17.4C33.6364 17.8774 33.8279 18.3352 34.1689 18.6728C34.5099 19.0104 34.9723 19.2 35.4545 19.2C35.9368 19.2 36.3992 19.0104 36.7402 18.6728C37.0812 18.3352 37.2727 17.8774 37.2727 17.4C37.2727 16.9226 37.0812 16.4648 36.7402 16.1272C36.3992 15.7896 35.9368 15.6 35.4545 15.6ZM13.6364 22.8V26.4H28.1818V22.8H13.6364ZM31.8182 22.8V26.4H46.3636V22.8H31.8182Z" fill="#1E1E1E"/>
</g>
<defs>
<clipPath id="clip0_51_54">
<rect width="60" height="60" fill="white"/>
</clipPath>
</defs>
</svg>
