<svg width="60" height="60" viewBox="0 0 60 60" fill="none" xmlns="http://www.w3.org/2000/svg">
<g clip-path="url(#clip0_52_29)">
<circle cx="30" cy="30" r="30" fill="#D3CABF" fill-opacity="0.6"/>
<path d="M19.972 13.4C25.566 19.59 34.792 6.232 40.252 11.08C43.392 13.868 42.398 20.028 38.322 24.04" stroke="#1E1E1E" stroke-width="3.5" stroke-linecap="round"/>
<path d="M33.5801 33.968C33.6161 33.298 33.8021 32.074 32.7861 31.144C32.3978 30.8049 31.9446 30.5484 31.4541 30.39C29.3581 29.65 26.7821 32.124 28.6041 34.39C29.5841 35.606 30.3381 35.98 30.2681 37.362C30.2181 38.334 29.2621 39.35 28.0041 39.738C26.9101 40.074 25.7041 39.628 24.9421 38.776C24.0101 37.736 24.1021 36.754 24.0961 36.326M32.7861 31.146L33.9341 29.996M25.0241 38.906L23.9341 39.996" stroke="#1E1E1E" stroke-width="3.5" stroke-linecap="round" stroke-linejoin="round"/>
<path d="M42.546 19.266C44.396 19.622 44.812 20.79 45.364 24.034C45.862 26.954 46.002 30.46 46.002 31.954C45.9515 32.5025 45.7281 33.0207 45.364 33.434C41.494 37.49 33.812 45.15 29.936 48.954C28.416 50.314 26.12 50.344 24.504 49.096C21.198 46.122 18.022 42.76 14.91 39.726C13.66 38.114 13.69 35.826 15.05 34.308C19.152 30.054 26.574 22.772 30.762 18.748C31.182 18.388 31.698 18.164 32.248 18.114C33.188 18.114 34.8 18.24 36.372 18.33" stroke="#1E1E1E" stroke-width="3.5" stroke-linecap="round"/>
</g>
<defs>
<clipPath id="clip0_52_29">
<rect width="60" height="60" fill="white"/>
</clipPath>
</defs>
</svg>
