<svg width="60" height="60" viewBox="0 0 60 60" fill="none" xmlns="http://www.w3.org/2000/svg">
<g clip-path="url(#clip0_51_58)">
<circle cx="30" cy="30" r="30" fill="#D3CABF" fill-opacity="0.6"/>
<path d="M19.972 13.4C25.566 19.59 34.792 6.23205 40.252 11.08C43.392 13.868 42.398 20.0281 38.322 24.0401" stroke="#333333" stroke-width="3.5" stroke-linecap="round"/>
<path d="M33.58 33.9681C33.616 33.2981 33.802 32.0741 32.786 31.1441C32.3978 30.805 31.9446 30.5485 31.454 30.3901C29.358 29.6501 26.782 32.1241 28.604 34.3901C29.584 35.6061 30.338 35.9801 30.268 37.3621C30.218 38.3341 29.262 39.3501 28.004 39.7381C26.91 40.0741 25.704 39.6281 24.942 38.7761C24.01 37.7361 24.102 36.7541 24.096 36.3261M32.786 31.1461L33.934 29.9961M25.024 38.9061L23.934 39.9961" stroke="#333333" stroke-width="3.5" stroke-linecap="round" stroke-linejoin="round"/>
<path d="M42.546 19.266C44.396 19.622 44.812 20.79 45.364 24.034C45.862 26.954 46.002 30.46 46.002 31.954C45.9515 32.5025 45.7281 33.0207 45.364 33.434C41.494 37.49 33.812 45.15 29.936 48.954C28.416 50.314 26.12 50.344 24.504 49.096C21.198 46.122 18.022 42.76 14.91 39.726C13.66 38.114 13.69 35.826 15.05 34.308C19.152 30.054 26.574 22.772 30.762 18.748C31.182 18.388 31.698 18.164 32.248 18.114C33.188 18.114 34.8 18.24 36.372 18.33" stroke="#333333" stroke-width="3.5" stroke-linecap="round"/>
</g>
<defs>
<clipPath id="clip0_51_58">
<rect width="60" height="60" fill="white"/>
</clipPath>
</defs>
</svg>
