<svg width="61" height="60" viewBox="0 0 61 60" fill="none" xmlns="http://www.w3.org/2000/svg">
<g clip-path="url(#clip0_51_56)">
<circle cx="30.5" cy="30" r="30" fill="#D3CABF" fill-opacity="0.6"/>
<path d="M30.5 26L22.5 14.8L25.7 10H35.3L38.5 14.8L30.5 26ZM37.5 19.6L35.1 23C39.5 24.8 42.5 29 42.5 34C42.5 37.1826 41.2357 40.2348 38.9853 42.4853C36.7348 44.7357 33.6826 46 30.5 46C27.3174 46 24.2652 44.7357 22.0147 42.4853C19.7643 40.2348 18.5 37.1826 18.5 34C18.5 29 21.5 24.8 25.9 23L23.5 19.6C18.1 22.2 14.5 27.6 14.5 34C14.5 38.2435 16.1857 42.3131 19.1863 45.3137C22.1869 48.3143 26.2565 50 30.5 50C34.7435 50 38.8131 48.3143 41.8137 45.3137C44.8143 42.3131 46.5 38.2435 46.5 34C46.5 27.6 42.9 22.2 37.5 19.6Z" fill="#333333"/>
</g>
<defs>
<clipPath id="clip0_51_56">
<rect width="60" height="60" fill="white" transform="translate(0.5)"/>
</clipPath>
</defs>
</svg>
