<svg width="60" height="60" viewBox="0 0 60 60" fill="none" xmlns="http://www.w3.org/2000/svg">
<g clip-path="url(#clip0_52_26)">
<circle cx="30" cy="30" r="30" fill="#D3CABF" fill-opacity="0.6"/>
<path d="M30 26L22 14.8L25.2 10H34.8L38 14.8L30 26ZM37 19.6L34.6 23C39 24.8 42 29 42 34C42 37.1826 40.7357 40.2348 38.4853 42.4853C36.2348 44.7357 33.1826 46 30 46C26.8174 46 23.7652 44.7357 21.5147 42.4853C19.2643 40.2348 18 37.1826 18 34C18 29 21 24.8 25.4 23L23 19.6C17.6 22.2 14 27.6 14 34C14 38.2435 15.6857 42.3131 18.6863 45.3137C21.6869 48.3143 25.7565 50 30 50C34.2435 50 38.3131 48.3143 41.3137 45.3137C44.3143 42.3131 46 38.2435 46 34C46 27.6 42.4 22.2 37 19.6Z" fill="#1E1E1E"/>
</g>
<defs>
<clipPath id="clip0_52_26">
<rect width="60" height="60" fill="white"/>
</clipPath>
</defs>
</svg>
